HIERARCHY
ROOT Hips
{
	OFFSET -0.001795 -0.223333 0.028219
	CHANNELS 6 Xposition Yposition Zposition Zrotation Yrotation Xrotation 
	JOINT LeftUpLeg
	{
		OFFSET 0.069520 -0.091406 -0.006815
		CHANNELS 3 Zrotation Yrotation Xrotation
		JOINT LeftLeg
		{
			OFFSET 0.034277 -0.375199 -0.004496
			CHANNELS 3 Zrotation Yrotation Xrotation
			JOINT LeftFoot
			{
				OFFSET -0.013596 -0.397961 -0.043693
				CHANNELS 3 Zrotation Yrotation Xrotation
				JOINT LeftToe
				{
					OFFSET 0.026358 -0.055791 0.119288
					CHANNELS 3 Zrotation Yrotation Xrotation
					End Site
					{
						OFFSET 0.000000 0.000000 0.000000
					}
				}
			}
		}
	}
	JOINT RightUpLeg
	{
		OFFSET -0.067670 -0.090522 -0.004320
		CHANNELS 3 Zrotation Yrotation Xrotation
		JOINT RightLeg
		{
			OFFSET -0.038290 -0.382569 -0.008850
			CHANNELS 3 Zrotation Yrotation Xrotation
			JOINT RightFoot
			{
				OFFSET 0.015774 -0.398415 -0.042312
				CHANNELS 3 Zrotation Yrotation Xrotation
				JOINT RightToe
				{
					OFFSET -0.025372 -0.048144 0.123348
					CHANNELS 3 Zrotation Yrotation Xrotation
					End Site
					{
						OFFSET 0.000000 0.000000 0.000000
					}
				}
			}
		}
	}
	JOINT Spine
	{
		OFFSET -0.002533 0.108963 -0.026696
		CHANNELS 3 Zrotation Yrotation Xrotation
		JOINT Spine1
		{
			OFFSET 0.005487 0.135180 0.001092
			CHANNELS 3 Zrotation Yrotation Xrotation
			JOINT Spine2
			{
				OFFSET 0.001457 0.052922 0.025425
				CHANNELS 3 Zrotation Yrotation Xrotation
				JOINT Neck
				{
					OFFSET -0.002778 0.213870 -0.042857
					CHANNELS 3 Zrotation Yrotation Xrotation
					JOINT Head
					{
						OFFSET 0.005152 0.064970 0.051349
						CHANNELS 3 Zrotation Yrotation Xrotation
						End Site
						{
							OFFSET 0.000000 0.000000 0.000000
						}
					}
				}
				JOINT LeftShoulder
				{
					OFFSET 0.078845 0.121749 -0.034090
					CHANNELS 3 Zrotation Yrotation Xrotation
					JOINT LeftArm
					{
						OFFSET 0.090977 0.030469 -0.008868
						CHANNELS 3 Zrotation Yrotation Xrotation
						JOINT LeftForeArm
						{
							OFFSET 0.259612 -0.012772 -0.027456
							CHANNELS 3 Zrotation Yrotation Xrotation
							JOINT LeftHand
							{
								OFFSET 0.249234 0.008986 -0.001171
								CHANNELS 3 Zrotation Yrotation Xrotation
								End Site
								{
									OFFSET 0.000000 0.000000 0.000000
								}
							}
						}
					}
				}
				JOINT RightShoulder
				{
					OFFSET -0.081759 0.118833 -0.038615
					CHANNELS 3 Zrotation Yrotation Xrotation
					JOINT RightArm
					{
						OFFSET -0.096012 0.032551 -0.009143
						CHANNELS 3 Zrotation Yrotation Xrotation
						JOINT RightForeArm
						{
							OFFSET -0.253742 -0.013329 -0.021401
							CHANNELS 3 Zrotation Yrotation Xrotation
							JOINT RightHand
							{
								OFFSET -0.255298 0.007772 -0.005559
								CHANNELS 3 Zrotation Yrotation Xrotation
								End Site
								{
									OFFSET 0.000000 0.000000 0.000000
								}
							}
						}
					}
				}
			}
		}
	}
}
MOTION
Frames: 8
Frame Time: 0.050000
0.637975 0.922799 -0.422083 -5.681070 38.978033 -6.091854 13.934893 -1.715083 -1.519221 4.258457 -0.095448 -2.915677 13.697644 25.469309 25.906332 0.000000 0.000000 0.000000 -15.495958 -2.413422 -4.999409 2.045210 -2.231504 19.542198 -4.930842 -9.122244 20.930056 0.000000 0.000000 0.000000 1.057320 -0.159424 3.304343 -4.269941 0.829482 6.020078 1.948420 7.582436 5.038665 -1.586604 4.401637 -14.254696 0.000000 0.000000 0.000000 -21.782895 -24.821791 2.641785 -29.428939 -10.372707 1.315309 -38.051844 -51.483460 16.232079 0.000000 0.000000 0.000000 35.548829 16.441604 22.625814 41.382529 28.596300 1.209453 -4.540877 55.949387 2.564313 0.000000 0.000000 0.000000 
0.655969 0.923503 -0.437218 -6.756723 40.963662 -7.041532 13.182483 -1.632776 -2.166950 4.059702 -0.096721 -2.638459 13.241840 24.842779 23.040681 0.000000 0.000000 0.000000 -13.339401 -2.090500 -5.853350 6.380090 -4.864917 22.101860 -8.614403 -16.988111 13.288948 0.000000 0.000000 0.000000 0.713917 -0.227095 4.425695 -4.527611 0.922548 5.664578 1.127561 8.873303 4.943583 0.065110 3.354234 -12.740942 0.000000 0.000000 0.000000 -22.610121 -25.460469 1.893137 -27.446925 -9.492197 1.390833 -39.986279 -49.345034 16.282072 0.000000 0.000000 0.000000 35.762510 15.930182 23.490582 40.027076 29.429357 0.983239 0.121188 54.729006 4.679002 0.000000 0.000000 0.000000 
0.673263 0.923839 -0.452773 -7.301226 44.150180 -7.307195 12.456775 -1.604574 -2.821732 2.591641 -0.035189 -3.710662 12.216491 23.511197 20.026899 0.000000 0.000000 0.000000 -12.925425 -2.246093 -6.724838 8.443489 -6.816771 23.851090 -12.062844 -23.096757 14.375479 0.000000 0.000000 0.000000 0.806282 -0.273541 4.965099 -5.938687 1.372852 5.723633 1.348336 9.384820 4.485374 1.165972 2.629297 -11.903798 0.000000 0.000000 0.000000 -23.250341 -25.770188 1.124806 -27.598189 -7.857609 1.339823 -39.726754 -48.906526 15.778537 0.000000 0.000000 0.000000 36.657698 16.074406 24.912426 37.265774 28.423536 -0.012435 3.616418 53.179949 5.710773 0.000000 0.000000 0.000000 
0.690067 0.924318 -0.467818 -8.440714 47.626337 -8.431272 11.857885 -1.580533 -4.147176 1.448367 -0.056832 -2.674735 10.947712 21.646033 16.697246 0.000000 0.000000 0.000000 -12.091338 -2.280076 -7.033289 8.480185 -7.997823 25.517139 -13.578452 -24.804718 16.410838 0.000000 0.000000 0.000000 0.107412 -0.338354 5.989308 -6.232861 1.286781 5.827843 1.727251 9.708100 4.778608 1.810732 2.246501 -11.311882 0.000000 0.000000 0.000000 -24.626362 -25.664684 -0.107435 -26.717545 -6.761869 1.339387 -39.400998 -47.938341 15.419695 0.000000 0.000000 0.000000 36.833550 16.732180 26.380073 35.312538 27.504883 -0.674897 4.303301 50.843186 5.158247 0.000000 0.000000 0.000000 
0.706747 0.924239 -0.481115 -8.815842 50.826986 -8.707131 10.942305 -1.507120 -5.249227 -0.120355 -0.096677 -2.020723 9.942862 19.834088 13.869108 0.000000 0.000000 0.000000 -12.128516 -2.496723 -6.963445 8.686669 -8.570720 25.322166 -13.813140 -25.092400 16.117872 0.000000 0.000000 0.000000 -0.325020 -0.368728 6.451692 -6.661489 1.210437 6.070913 1.371951 10.574923 5.133687 3.089594 1.639575 -11.413430 0.000000 0.000000 0.000000 -24.790213 -25.670758 -1.326459 -26.959525 -5.046997 1.286504 -40.283768 -48.374878 15.594311 0.000000 0.000000 0.000000 36.182896 16.860646 27.334547 34.967986 27.156842 -0.981046 5.057399 48.650104 4.998811 0.000000 0.000000 0.000000 
0.722947 0.924078 -0.492755 -9.327409 54.765806 -9.045637 10.205669 -1.507783 -6.204616 -2.060215 -0.214495 -1.724557 8.614215 17.423689 11.349620 0.000000 0.000000 0.000000 -12.417920 -2.782112 -6.032445 8.944089 -9.065776 24.487078 -14.971188 -25.771244 18.425565 0.000000 0.000000 0.000000 -1.604135 -0.368223 6.810938 -6.661691 0.819304 6.553335 2.182779 10.549217 5.978792 3.930466 1.094032 -10.843936 0.000000 0.000000 0.000000 -24.899789 -24.247982 -2.996803 -27.061193 -4.190275 1.187516 -41.431836 -48.054060 15.851450 0.000000 0.000000 0.000000 34.776993 17.962436 28.098374 34.268088 26.664710 -1.065699 4.275756 47.209128 4.165613 0.000000 0.000000 0.000000 
0.738421 0.923758 -0.502907 -10.129262 58.127368 -9.848390 9.406023 -1.479697 -7.137537 -3.306617 -0.327774 -0.420373 7.611409 15.131260 9.040387 0.000000 0.000000 0.000000 -12.157168 -2.881722 -4.994898 8.362681 -8.932589 23.525153 -15.303226 -25.647322 19.184469 0.000000 0.000000 0.000000 -2.364965 -0.416369 7.427612 -6.953637 0.584586 6.871036 2.676372 11.543480 6.759370 4.618594 0.734422 -10.544603 0.000000 0.000000 0.000000 -24.104373 -23.694537 -4.239441 -27.902130 -3.259847 1.144644 -41.452675 -47.522798 15.071515 0.000000 0.000000 0.000000 34.267820 17.825083 28.896074 33.348618 27.980381 -1.029715 2.127355 44.409014 2.771207 0.000000 0.000000 0.000000 
0.752741 0.922721 -0.512427 -11.804418 61.780239 -11.319672 9.129719 -1.575072 -8.575610 -4.835346 -0.511137 1.580378 6.732019 12.655262 6.786120 0.000000 0.000000 0.000000 -12.229650 -3.121260 -3.979751 8.278059 -9.214947 22.778979 -16.157157 -25.549030 21.587728 0.000000 0.000000 0.000000 -3.068371 -0.533086 8.523921 -6.668766 -0.020290 7.526408 3.403582 12.446365 7.127697 6.683557 -0.723329 -9.913871 0.000000 0.000000 0.000000 -23.804269 -23.466857 -5.361669 -28.528189 -1.799884 1.001345 -39.729852 -47.984752 14.122682 0.000000 0.000000 0.000000 33.098790 18.550985 29.673262 32.520973 28.661028 -0.869032 -1.650506 42.679017 0.952381 0.000000 0.000000 0.000000 
